<svg xmlns="http://www.w3.org/2000/svg" viewBox="0 0 300 300">
<defs>
<radialGradient id="roseA" cx="45%" cy="40%" r="55%"><stop offset="0%" stop-color="#FFF8E7"/><stop offset="40%" stop-color="#E8B4B8"/><stop offset="100%" stop-color="#C9516E"/></radialGradient>
<radialGradient id="roseB" cx="50%" cy="45%" r="50%"><stop offset="0%" stop-color="#E8B4B8"/><stop offset="50%" stop-color="#C9516E"/><stop offset="100%" stop-color="#8B2D4A"/></radialGradient>
<radialGradient id="roseC" cx="55%" cy="35%" r="55%"><stop offset="0%" stop-color="#FFFDF5"/><stop offset="45%" stop-color="#FFF8E7"/><stop offset="100%" stop-color="#E8B4B8"/></radialGradient>
<radialGradient id="peonyG" cx="50%" cy="50%" r="50%"><stop offset="0%" stop-color="#FFF8E7"/><stop offset="30%" stop-color="#F5D5D8"/><stop offset="70%" stop-color="#E8B4B8"/><stop offset="100%" stop-color="#D4919A"/></radialGradient>
<radialGradient id="goldG" cx="50%" cy="30%" r="60%"><stop offset="0%" stop-color="#F0D99C"/><stop offset="100%" stop-color="#C9A96E"/></radialGradient>
<radialGradient id="leafG" cx="30%" cy="30%" r="70%"><stop offset="0%" stop-color="#7A9A5A"/><stop offset="100%" stop-color="#5B7A3A"/></radialGradient>
</defs>
<!-- Trailing vines -->
<g stroke="#5B7A3A" stroke-width="2" fill="none" opacity="0.8">
<path d="M80,20 Q60,60 70,100 Q80,140 60,180 Q40,220 50,270 Q55,290 60,300"/>
<path d="M20,80 Q50,90 70,100"/>
<path d="M40,160 Q30,180 20,210 Q15,240 25,280"/>
<path d="M100,10 Q90,30 80,20"/>
<path d="M60,180 Q80,200 100,220 Q120,240 110,280"/>
</g>
<!-- Leaves along vines -->
<g fill="url(#leafG)" opacity="0.85">
<ellipse cx="65" cy="55" rx="10" ry="16" transform="rotate(-30,65,55)"/>
<ellipse cx="75" cy="120" rx="9" ry="14" transform="rotate(20,75,120)"/>
<ellipse cx="55" cy="200" rx="10" ry="15" transform="rotate(-15,55,200)"/>
<ellipse cx="45" cy="250" rx="8" ry="13" transform="rotate(10,45,250)"/>
<ellipse cx="35" cy="110" rx="9" ry="13" transform="rotate(-40,35,110)"/>
<ellipse cx="25" cy="230" rx="8" ry="12" transform="rotate(-25,25,230)"/>
<ellipse cx="90" cy="210" rx="9" ry="14" transform="rotate(30,90,210)"/>
<ellipse cx="105" cy="240" rx="8" ry="12" transform="rotate(15,105,240)"/>
</g>
<!-- Large Rose 1 (top-left) -->
<g transform="translate(70,60)">
<ellipse cx="0" cy="0" rx="30" ry="28" fill="url(#roseA)" opacity="0.6"/>
<ellipse cx="-12" cy="-8" rx="16" ry="12" fill="url(#roseA)" transform="rotate(-30,-12,-8)"/>
<ellipse cx="12" cy="-8" rx="16" ry="12" fill="url(#roseA)" transform="rotate(30,12,-8)"/>
<ellipse cx="-10" cy="8" rx="14" ry="11" fill="#E8B4B8" transform="rotate(20,-10,8)"/>
<ellipse cx="10" cy="8" rx="14" ry="11" fill="#E8B4B8" transform="rotate(-20,10,8)"/>
<ellipse cx="0" cy="-3" rx="10" ry="8" fill="url(#roseC)" opacity="0.8"/>
<ellipse cx="0" cy="0" rx="6" ry="5" fill="#FFF8E7" opacity="0.7"/>
<circle cx="0" cy="0" r="3" fill="url(#goldG)" opacity="0.6"/>
</g>
<!-- Large Rose 2 (center) -->
<g transform="translate(100,140)">
<ellipse cx="0" cy="0" rx="32" ry="30" fill="url(#roseB)" opacity="0.6"/>
<ellipse cx="-14" cy="-10" rx="18" ry="13" fill="url(#roseB)" transform="rotate(-25,-14,-10)"/>
<ellipse cx="14" cy="-10" rx="18" ry="13" fill="url(#roseB)" transform="rotate(25,14,-10)"/>
<ellipse cx="-12" cy="10" rx="15" ry="12" fill="#C9516E" transform="rotate(15,-12,10)"/>
<ellipse cx="12" cy="10" rx="15" ry="12" fill="#C9516E" transform="rotate(-15,12,10)"/>
<ellipse cx="0" cy="-4" rx="12" ry="9" fill="url(#roseA)" opacity="0.8"/>
<ellipse cx="0" cy="0" rx="7" ry="5.5" fill="#E8B4B8" opacity="0.8"/>
<circle cx="0" cy="0" r="3.5" fill="url(#goldG)" opacity="0.7"/>
</g>
<!-- Large Rose 3 (right) -->
<g transform="translate(150,90)">
<ellipse cx="0" cy="0" rx="28" ry="26" fill="url(#roseC)" opacity="0.6"/>
<ellipse cx="-11" cy="-7" rx="15" ry="11" fill="url(#roseC)" transform="rotate(-35,-11,-7)"/>
<ellipse cx="11" cy="-7" rx="15" ry="11" fill="url(#roseC)" transform="rotate(35,11,-7)"/>
<ellipse cx="-9" cy="7" rx="13" ry="10" fill="#FFF8E7" transform="rotate(25,-9,7)"/>
<ellipse cx="9" cy="7" rx="13" ry="10" fill="#FFF8E7" transform="rotate(-25,9,7)"/>
<ellipse cx="0" cy="-2" rx="9" ry="7" fill="#FFFDF5" opacity="0.8"/>
<circle cx="0" cy="0" r="4" fill="url(#goldG)" opacity="0.6"/>
</g>
<!-- Large Rose 4 (bottom) -->
<g transform="translate(80,230)">
<ellipse cx="0" cy="0" rx="26" ry="24" fill="url(#roseA)" opacity="0.6"/>
<ellipse cx="-10" cy="-7" rx="14" ry="10" fill="url(#roseA)" transform="rotate(-20,-10,-7)"/>
<ellipse cx="10" cy="-7" rx="14" ry="10" fill="url(#roseA)" transform="rotate(20,10,-7)"/>
<ellipse cx="-8" cy="6" rx="12" ry="9" fill="#E8B4B8" transform="rotate(15,-8,6)"/>
<ellipse cx="8" cy="6" rx="12" ry="9" fill="#E8B4B8" transform="rotate(-15,8,6)"/>
<ellipse cx="0" cy="-2" rx="8" ry="6" fill="url(#roseC)" opacity="0.8"/>
<circle cx="0" cy="0" r="3" fill="url(#goldG)" opacity="0.6"/>
</g>
<!-- Peony 1 -->
<g transform="translate(35,140)">
<circle cx="0" cy="0" r="20" fill="url(#peonyG)" opacity="0.5"/>
<ellipse cx="-8" cy="-10" rx="10" ry="7" fill="#F5D5D8" transform="rotate(-40,-8,-10)"/>
<ellipse cx="8" cy="-10" rx="10" ry="7" fill="#F5D5D8" transform="rotate(40,8,-10)"/>
<ellipse cx="-12" cy="0" rx="10" ry="6" fill="#E8B4B8" transform="rotate(-10,-12,0)"/>
<ellipse cx="12" cy="0" rx="10" ry="6" fill="#E8B4B8" transform="rotate(10,12,0)"/>
<ellipse cx="-6" cy="8" rx="9" ry="6" fill="#F5D5D8" transform="rotate(30,-6,8)"/>
<ellipse cx="6" cy="8" rx="9" ry="6" fill="#F5D5D8" transform="rotate(-30,6,8)"/>
<circle cx="0" cy="0" r="5" fill="#FFF8E7" opacity="0.8"/>
<circle cx="0" cy="0" r="2.5" fill="url(#goldG)"/>
</g>
<!-- Peony 2 -->
<g transform="translate(130,200)">
<circle cx="0" cy="0" r="18" fill="url(#peonyG)" opacity="0.5"/>
<ellipse cx="-7" cy="-9" rx="9" ry="6" fill="#F5D5D8" transform="rotate(-35,-7,-9)"/>
<ellipse cx="7" cy="-9" rx="9" ry="6" fill="#F5D5D8" transform="rotate(35,7,-9)"/>
<ellipse cx="-10" cy="2" rx="9" ry="5.5" fill="#E8B4B8" transform="rotate(-5,-10,2)"/>
<ellipse cx="10" cy="2" rx="9" ry="5.5" fill="#E8B4B8" transform="rotate(5,10,2)"/>
<ellipse cx="-5" cy="8" rx="8" ry="5" fill="#F5D5D8" transform="rotate(25,-5,8)"/>
<ellipse cx="5" cy="8" rx="8" ry="5" fill="#F5D5D8" transform="rotate(-25,5,8)"/>
<circle cx="0" cy="0" r="4.5" fill="#FFF8E7" opacity="0.8"/>
<circle cx="0" cy="0" r="2" fill="url(#goldG)"/>
</g>
<!-- Peony 3 -->
<g transform="translate(55,290)">
<circle cx="0" cy="0" r="16" fill="url(#peonyG)" opacity="0.5"/>
<ellipse cx="-6" cy="-8" rx="8" ry="5.5" fill="#F5D5D8" transform="rotate(-30,-6,-8)"/>
<ellipse cx="6" cy="-8" rx="8" ry="5.5" fill="#F5D5D8" transform="rotate(30,6,-8)"/>
<ellipse cx="-9" cy="1" rx="8" ry="5" fill="#E8B4B8" transform="rotate(-8,-9,1)"/>
<ellipse cx="9" cy="1" rx="8" ry="5" fill="#E8B4B8" transform="rotate(8,9,1)"/>
<circle cx="0" cy="0" r="4" fill="#FFF8E7" opacity="0.8"/>
<circle cx="0" cy="0" r="2" fill="url(#goldG)"/>
</g>
<!-- Baby's breath clusters -->
<g fill="white" opacity="0.9">
<circle cx="20" cy="50" r="3"/><circle cx="26" cy="46" r="2.5"/><circle cx="15" cy="55" r="2"/><circle cx="22" cy="57" r="2.5"/><circle cx="30" cy="52" r="2"/>
<circle cx="120" cy="50" r="2.5"/><circle cx="126" cy="46" r="2"/><circle cx="115" cy="54" r="2"/><circle cx="130" cy="52" r="2.5"/>
<circle cx="140" cy="160" r="3"/><circle cx="146" cy="156" r="2"/><circle cx="135" cy="164" r="2.5"/><circle cx="150" cy="162" r="2"/>
<circle cx="20" cy="180" r="2.5"/><circle cx="26" cy="176" r="2"/><circle cx="15" cy="184" r="2"/><circle cx="28" cy="182" r="2.5"/>
<circle cx="100" cy="270" r="2.5"/><circle cx="106" cy="266" r="2"/><circle cx="95" cy="274" r="2"/><circle cx="108" cy="272" r="2.5"/>
<circle cx="140" cy="250" r="3"/><circle cx="146" cy="246" r="2"/><circle cx="135" cy="254" r="2.5"/><circle cx="148" cy="252" r="2"/>
</g>
<!-- Gold accents -->
<circle cx="70" cy="60" r="2" fill="url(#goldG)" opacity="0.5"/>
<circle cx="100" cy="140" r="2" fill="url(#goldG)" opacity="0.5"/>
<circle cx="150" cy="90" r="2" fill="url(#goldG)" opacity="0.5"/>
</svg>